<svg viewBox="0 0 64 64" xmlns="http://www.w3.org/2000/svg"><g data-name="Layer 27"><path d="M37 21h16v2H37zM13 21h14v2H13zM37 25h16v2H37zM13 25h14v2H13zM37 29h16v2H37zM13 29h14v2H13zM37 33h16v2H37zM13 33h14v2H13zM37 37h16v2H37zM13 37h14v2H13zM37 41h16v2H37zM13 41h14v2H13z" fill="#5e81f4" class="fill-000000"></path><path d="M60 12H36a2.94 2.94 0 0 0-1.47.4 3 3 0 0 0-5.06 0A2.94 2.94 0 0 0 28 12H3v40h25a2.94 2.94 0 0 0 1.47-.4 3 3 0 0 0 5.06 0A2.94 2.94 0 0 0 36 52h25V12Zm-25 6h19a1 1 0 0 1 1 1v26a1 1 0 0 1-1 1H35Zm-6 28H11V18h18ZM5 50V14h1v36Zm23 0H8V14h20a1 1 0 0 1 1 1v1H11a2 2 0 0 0-2 2v28a2 2 0 0 0 2 2h18v1a1 1 0 0 1-1 1Zm5 0a1 1 0 0 1-2 0V14a1 1 0 0 1 2 0v36Zm3 0a1 1 0 0 1-1-1v-1h19a3 3 0 0 0 3-3V19a3 3 0 0 0-3-3H35v-1a1 1 0 0 1 1-1h23v36Z" fill="#5e81f4" class="fill-000000"></path></g></svg>